<?xml version="1.0" standalone="no"?>
<!DOCTYPE svg PUBLIC "-//W3C//DTD SVG 20010904//EN"
 "http://www.w3.org/TR/2001/REC-SVG-20010904/DTD/svg10.dtd">
<svg version="1.0" xmlns="http://www.w3.org/2000/svg"
 width="2000.000000pt" height="2000.000000pt" viewBox="0 0 2000.000000 2000.000000"
 preserveAspectRatio="xMidYMid meet">
<metadata>
Created by potrace 1.11, written by Peter Selinger 2001-2013
</metadata>
<g transform="translate(0.000000,2000.000000) scale(0.100000,-0.100000)"
fill="#000000" stroke="none">
<path d="M9630 19229 c-1663 -97 -3207 -601 -4605 -1502 -93 -60 -172 -111
-174 -113 -8 -7 43 -41 88 -60 115 -48 413 -207 531 -282 27 -18 210 -102 221
-102 4 0 43 -20 88 -45 74 -41 131 -67 372 -170 42 -18 95 -43 117 -54 23 -12
74 -32 114 -45 40 -13 98 -34 128 -46 169 -67 254 -90 329 -90 90 0 288 19
316 30 11 5 61 20 110 34 148 43 173 59 234 142 30 40 60 75 68 78 7 3 13 16
13 28 0 13 6 32 13 43 21 31 28 84 17 126 -14 51 -146 183 -215 215 -81 38
-129 41 -173 12 -43 -29 -82 -43 -82 -30 0 4 16 27 35 49 28 33 47 44 99 58
141 38 301 0 413 -97 80 -70 93 -92 93 -158 0 -45 -6 -65 -33 -110 -18 -30
-45 -80 -59 -110 -30 -66 -76 -121 -126 -151 -20 -13 -54 -37 -74 -55 -20 -18
-56 -43 -80 -55 -24 -12 -96 -57 -160 -100 -64 -44 -124 -79 -134 -79 -10 0
-49 -23 -88 -52 -39 -28 -89 -59 -112 -69 -22 -10 -56 -35 -76 -56 -19 -21
-82 -77 -140 -125 -57 -47 -182 -166 -278 -262 -96 -97 -180 -176 -187 -176
-9 0 -12 -8 -8 -22 15 -69 35 -369 35 -519 0 -96 2 -223 5 -283 3 -60 5 -149
5 -198 0 -79 2 -88 19 -88 11 0 31 20 53 53 58 89 142 201 160 215 10 7 18 19
18 25 0 7 20 33 45 57 25 24 45 50 45 57 0 7 25 40 56 74 30 33 67 79 82 102
15 23 40 56 55 72 56 61 133 151 157 185 13 19 32 42 41 50 9 8 44 49 77 90
60 74 229 251 307 322 22 20 56 53 76 74 19 22 71 67 115 102 43 34 120 95
169 135 50 41 135 104 190 142 55 38 123 92 152 120 64 63 89 78 109 67 35
-19 164 -199 225 -314 81 -150 133 -273 123 -289 -4 -7 -3 -9 3 -6 24 15 103
-293 103 -400 0 -26 5 -75 11 -110 9 -50 8 -67 -2 -79 -10 -12 -10 -15 2 -12
9 2 15 -12 20 -47 11 -79 9 -207 -4 -242 -15 -40 -180 -211 -230 -238 -21 -11
-39 -26 -42 -35 -3 -8 -46 -57 -95 -109 -50 -51 -90 -99 -90 -106 0 -7 -20
-25 -45 -40 -25 -14 -56 -43 -70 -65 -13 -21 -47 -57 -74 -81 -28 -23 -51 -48
-51 -56 0 -7 -7 -13 -15 -13 -8 0 -19 -10 -26 -22 -11 -21 -197 -218 -299
-316 -30 -29 -59 -58 -65 -64 -73 -75 -195 -162 -333 -238 -100 -55 -227 -110
-253 -110 -18 0 -67 -36 -59 -42 3 -3 43 -14 90 -27 46 -12 102 -30 125 -41
22 -11 80 -27 129 -35 50 -9 108 -25 129 -36 22 -10 56 -21 76 -25 42 -7 144
-36 250 -70 40 -13 100 -28 132 -33 33 -6 67 -17 76 -26 9 -10 18 -12 22 -7 4
7 50 7 131 1 154 -11 525 2 542 19 7 7 22 12 35 12 13 0 31 4 41 9 9 5 93 46
186 91 93 45 183 92 201 105 17 14 76 46 131 71 54 25 107 53 117 62 9 8 20
12 23 9 9 -8 -61 -86 -102 -114 -19 -14 -43 -45 -58 -78 -14 -30 -31 -55 -39
-55 -18 0 -58 -44 -101 -112 -20 -31 -40 -59 -46 -63 -5 -3 -10 -15 -10 -27 0
-11 -8 -32 -19 -46 -10 -15 -22 -38 -26 -52 -14 -47 -57 -145 -67 -151 -5 -3
-10 -129 -13 -285 -2 -153 -8 -333 -14 -399 -14 -168 -16 -687 -4 -1090 9
-280 14 -355 31 -425 l20 -85 -23 -25 c-54 -57 -57 -79 -40 -320 16 -238 28
-291 78 -354 47 -59 104 -79 204 -73 45 3 95 13 111 21 16 8 56 45 89 81 33
36 68 65 77 65 9 0 16 -2 16 -5 0 -16 -73 -115 -111 -151 -93 -87 -286 -204
-336 -204 -9 0 -24 -6 -32 -14 -15 -13 -68 -37 -166 -73 -23 -8 -53 -12 -72
-8 -25 4 -34 2 -42 -14 -6 -11 -21 -23 -33 -27 -25 -8 -89 -47 -129 -80 -15
-11 -55 -26 -88 -33 -34 -7 -80 -19 -102 -26 -36 -13 -44 -13 -70 0 -16 9 -29
19 -30 23 -5 47 -4 68 5 75 7 5 6 10 -4 17 -9 5 -16 27 -17 52 -1 24 -7 76
-13 116 -12 75 -7 142 11 142 5 0 3 10 -6 23 -10 16 -16 61 -20 146 -3 68 -10
131 -15 141 -15 28 -29 189 -40 450 -10 243 -21 312 -74 490 -46 154 -49 165
-62 180 -6 8 -23 38 -37 65 -14 28 -48 79 -76 115 -28 36 -67 88 -87 117 -35
50 -35 52 -20 81 19 36 49 61 105 86 22 11 41 23 41 28 0 15 158 166 182 173
31 10 58 35 58 54 0 8 12 25 26 36 26 20 27 25 25 106 -2 94 13 146 82 287 20
40 36 75 37 77 5 35 76 179 117 237 34 49 63 111 63 134 0 21 -28 17 -42 -6
-19 -31 -141 -107 -248 -155 -19 -8 -42 -20 -50 -25 -46 -30 -113 -60 -175
-78 -197 -59 -671 -52 -880 13 -85 26 -304 82 -470 121 -55 12 -127 32 -159
43 -77 27 -90 27 -82 -1 15 -48 13 -53 -24 -53 l-35 0 3 -140 c2 -77 5 -192 8
-257 6 -134 0 -153 -81 -248 -26 -30 -55 -66 -63 -80 -9 -14 -25 -36 -38 -50
-12 -14 -40 -56 -63 -95 -23 -38 -79 -115 -126 -170 -94 -112 -198 -243 -234
-294 -20 -27 -22 -37 -13 -50 7 -9 15 -21 18 -27 5 -11 -378 -403 -499 -510
-41 -37 -56 -56 -51 -68 3 -9 38 -35 78 -58 39 -23 89 -54 112 -69 85 -58 264
-143 377 -180 271 -89 529 -138 627 -119 25 5 90 14 144 20 114 13 216 45 333
101 106 52 155 89 233 175 36 39 75 76 88 82 12 7 26 20 29 29 4 10 28 43 54
73 26 30 50 67 54 82 4 14 20 38 36 52 16 14 29 31 29 37 0 7 21 54 46 105 70
143 84 298 33 365 -14 19 -29 43 -33 54 -13 40 -181 99 -266 93 -20 -1 -41 1
-47 5 -14 9 -77 -28 -144 -84 -49 -41 -65 -47 -72 -26 -7 21 23 55 97 109 121
89 159 109 231 115 83 8 278 -50 316 -93 10 -11 38 -50 64 -89 l48 -69 -6 -96
c-8 -133 -50 -243 -153 -402 -107 -166 -288 -351 -489 -498 -33 -24 -83 -65
-111 -90 -66 -58 -110 -93 -269 -214 -71 -54 -147 -114 -168 -133 -20 -18 -41
-33 -47 -33 -5 0 -21 -11 -35 -24 -22 -21 -128 -93 -287 -195 -100 -64 -330
-107 -523 -98 -66 4 -136 11 -155 17 -19 6 -52 13 -72 15 -20 3 -50 10 -65 16
-15 6 -59 19 -98 29 -146 36 -392 144 -459 199 -26 23 -56 41 -65 41 -19 0
-153 80 -191 114 -14 13 -45 34 -70 49 -25 14 -54 33 -65 42 -32 25 -289 182
-412 251 -62 34 -156 80 -210 102 -54 22 -129 55 -168 72 -38 17 -114 44 -169
61 -94 28 -112 30 -265 30 -161 0 -165 -1 -227 -30 -35 -17 -64 -35 -64 -41 0
-17 -108 -120 -125 -120 -8 0 -26 -12 -39 -27 -18 -19 -29 -24 -36 -17 -16 16
55 117 156 222 50 50 98 92 108 92 11 0 16 5 13 13 -3 8 38 56 96 114 74 74
118 108 160 127 39 19 57 32 57 45 0 24 25 45 45 37 9 -3 14 -2 11 3 -6 9 55
38 126 60 32 11 37 17 43 52 5 30 11 39 27 39 18 0 20 5 15 34 -6 37 0 42 83
72 52 18 252 21 341 4 88 -17 229 -60 280 -86 27 -13 70 -31 96 -40 153 -51
536 -260 714 -390 26 -19 60 -36 75 -39 27 -5 34 2 94 86 36 50 83 113 105
140 22 27 72 98 110 159 39 61 85 133 103 160 17 27 32 53 32 56 0 4 15 25 33
48 18 23 41 59 50 81 10 22 24 52 31 66 8 15 10 32 6 39 -4 7 -11 90 -15 184
-10 251 -31 466 -49 507 -8 20 -29 90 -45 155 -36 139 -106 294 -172 376 -25
31 -84 90 -130 131 -46 40 -89 80 -96 88 -21 26 -3 65 53 115 31 27 73 66 95
87 21 21 54 44 72 52 31 13 77 50 151 122 l28 28 -7 200 c-4 110 -9 237 -11
283 -2 48 0 82 6 82 6 0 6 9 0 24 -5 14 -9 112 -9 218 -1 245 -8 474 -21 608
-5 58 -12 140 -15 182 l-7 77 158 163 c246 253 391 396 411 403 10 3 36 34 58
68 57 87 87 120 163 174 37 26 69 50 72 53 3 3 20 16 38 29 34 24 43 47 15 38
-61 -19 -94 -36 -135 -70 -42 -34 -51 -38 -109 -39 -35 0 -84 3 -107 7 -39 6
-170 49 -227 74 -11 5 -56 21 -100 37 -44 15 -118 45 -165 67 -47 21 -112 49
-145 62 -103 39 -259 111 -304 140 -25 15 -83 43 -130 62 -47 19 -91 39 -98
44 -6 6 -31 18 -55 27 -24 9 -103 50 -177 91 -73 40 -190 100 -259 133 -69 33
-140 71 -157 84 -18 13 -35 24 -38 24 -4 0 -31 15 -60 34 l-53 34 -160 -140
c-87 -77 -289 -271 -447 -430 -310 -311 -321 -325 -247 -340 93 -19 143 -35
152 -51 5 -10 14 -14 21 -10 6 3 48 6 93 4 77 -2 87 0 156 35 40 20 99 57 131
81 32 25 61 42 65 39 3 -4 -27 -39 -68 -77 -56 -54 -97 -82 -169 -116 -150
-72 -232 -71 -416 9 l-89 38 -21 -24 c-381 -451 -555 -680 -790 -1036 -816
-1240 -1315 -2604 -1494 -4090 -49 -402 -56 -547 -56 -1137 0 -361 4 -566 10
-572 7 -6 33 20 78 77 37 48 71 92 75 98 12 18 92 65 106 62 8 -2 25 8 38 22
14 14 47 40 74 58 27 18 87 58 134 89 114 76 198 104 327 110 64 4 113 1 135
-6 18 -6 76 -18 130 -26 259 -39 446 -110 973 -371 248 -122 478 -234 512
-248 35 -14 104 -46 155 -70 306 -144 521 -223 754 -277 123 -28 156 -32 289
-32 135 0 157 3 222 25 117 41 193 90 245 155 25 32 63 76 85 98 22 22 44 51
48 65 14 47 47 105 77 136 24 25 31 44 39 105 13 97 13 97 0 144 -6 22 -11 59
-11 81 0 23 -7 58 -15 77 -20 49 -106 116 -192 151 l-72 29 -101 -16 c-116
-18 -189 -49 -243 -101 -37 -37 -62 -41 -50 -8 13 36 55 83 100 108 58 35 206
74 306 81 74 6 80 4 151 -31 56 -27 91 -54 140 -107 76 -82 95 -130 103 -254
5 -77 3 -85 -39 -190 -41 -101 -86 -175 -215 -352 -33 -45 -173 -155 -241
-189 -31 -15 -60 -33 -64 -40 -5 -7 -27 -23 -50 -37 -24 -14 -54 -37 -67 -51
-14 -14 -30 -26 -36 -26 -7 0 -26 -13 -43 -30 -18 -16 -38 -30 -45 -30 -8 0
-19 -11 -25 -24 -8 -18 -21 -25 -57 -31 -36 -5 -54 -14 -77 -41 -17 -19 -35
-34 -42 -34 -6 0 -54 -42 -106 -93 -96 -93 -238 -220 -276 -247 -11 -8 -31
-30 -45 -48 l-24 -34 2 -671 c3 -663 12 -1080 26 -1093 19 -19 69 61 107 172
10 28 36 81 59 118 23 38 41 71 41 75 0 5 9 16 20 26 11 10 22 27 26 38 7 24
69 123 94 152 9 11 33 49 52 85 19 36 51 87 72 114 20 27 44 63 53 80 8 17 23
40 33 51 10 11 21 31 25 45 4 14 22 43 40 65 17 22 47 63 65 90 18 28 58 79
89 115 31 36 72 85 90 110 19 25 64 77 101 115 37 39 110 114 161 169 52 54
135 130 184 168 175 134 324 254 377 303 30 28 76 68 103 90 27 22 86 77 132
122 46 45 92 85 103 88 26 8 71 -17 111 -63 19 -20 57 -55 86 -76 28 -22 87
-84 131 -140 102 -130 302 -427 342 -507 45 -87 94 -243 104 -331 2 -12 8 -34
14 -48 11 -28 32 -202 32 -268 0 -47 -29 -83 -83 -104 -16 -6 -32 -18 -35 -28
-8 -21 -95 -122 -177 -204 -33 -34 -71 -81 -84 -106 -13 -25 -42 -70 -66 -100
-23 -30 -45 -65 -49 -77 -4 -12 -25 -40 -46 -62 -22 -22 -46 -56 -54 -76 -8
-19 -26 -40 -40 -47 -15 -6 -26 -16 -26 -21 0 -5 -42 -51 -94 -102 -52 -51
-97 -101 -100 -112 -9 -27 -218 -229 -355 -343 -62 -52 -121 -102 -130 -111
-9 -8 -34 -26 -56 -39 -22 -13 -79 -47 -126 -77 -51 -32 -132 -70 -195 -92
-245 -87 -284 -103 -284 -120 0 -4 41 -15 92 -25 85 -16 441 -110 459 -121 13
-9 241 -87 309 -107 252 -73 380 -92 606 -91 188 2 245 9 409 54 210 58 272
81 465 172 130 61 245 105 249 95 2 -5 -12 -26 -32 -46 -47 -50 -159 -228
-209 -332 -91 -191 -84 -144 -79 -515 5 -409 6 -547 3 -1048 -1 -218 3 -475 9
-570 17 -263 15 -346 -5 -385 -13 -25 -20 -75 -26 -184 -5 -83 -8 -154 -5
-158 2 -3 11 -62 19 -131 24 -186 41 -235 104 -301 34 -36 40 -38 97 -38 52 0
214 33 268 55 10 4 17 3 17 -4 0 -17 -40 -50 -70 -56 -14 -3 -53 -26 -86 -50
-32 -25 -67 -45 -77 -45 -10 0 -39 -8 -65 -19 -69 -27 -260 -71 -311 -71 -34
0 -56 -9 -105 -41 -33 -22 -65 -47 -69 -55 -4 -7 -26 -18 -49 -25 -23 -6 -68
-29 -101 -51 -48 -33 -65 -39 -90 -34 -42 9 -57 24 -57 60 0 17 -7 67 -15 111
-10 53 -14 153 -15 301 0 165 -4 232 -14 262 -8 22 -20 93 -26 159 -24 246
-41 348 -77 453 -54 158 -100 274 -147 369 -24 47 -49 103 -55 123 -7 21 -46
83 -87 139 -41 56 -74 106 -74 112 0 12 62 71 180 171 46 39 101 87 120 106
20 19 62 59 93 88 l57 53 0 132 c1 133 19 277 39 301 6 7 19 37 30 67 24 69
78 186 90 193 5 4 26 34 46 69 56 96 75 119 215 261 72 73 140 145 150 162 11
16 27 39 35 51 11 14 13 23 6 28 -6 3 -11 0 -11 -7 0 -7 -64 -78 -142 -157
-221 -223 -240 -241 -286 -273 -76 -52 -257 -136 -364 -168 -57 -17 -112 -36
-123 -42 -11 -6 -36 -15 -55 -19 -19 -4 -64 -16 -100 -26 -55 -15 -104 -18
-325 -17 -236 0 -268 2 -345 23 -47 12 -103 26 -125 31 -22 5 -123 35 -225 68
-266 87 -460 139 -601 162 -170 27 -219 27 -253 -5 -25 -23 -26 -28 -26 -129
0 -58 4 -172 10 -253 5 -82 14 -248 20 -369 13 -263 23 -233 -147 -460 -75
-100 -83 -114 -73 -135 10 -22 5 -30 -59 -96 -38 -40 -77 -83 -86 -97 -17 -26
-17 -26 62 -100 293 -276 719 -618 1064 -855 l105 -72 113 32 c154 44 299 126
431 242 55 49 100 95 100 102 0 8 18 35 40 60 22 25 40 55 40 66 0 27 26 75
44 82 17 7 36 67 36 113 0 17 12 53 26 80 22 42 24 53 16 84 -6 19 -11 63 -11
97 0 42 -6 73 -20 99 -12 21 -21 48 -21 59 -1 34 -85 115 -135 131 -76 22
-184 27 -237 11 -52 -16 -62 -13 -47 14 14 28 38 37 135 54 118 21 198 9 286
-44 55 -33 68 -47 101 -110 37 -70 39 -76 42 -188 4 -97 1 -124 -15 -162 -10
-25 -24 -66 -30 -91 -43 -173 -135 -324 -284 -463 -67 -63 -199 -165 -234
-180 -15 -7 -45 -24 -67 -38 -22 -14 -75 -48 -118 -76 l-78 -50 146 -91 147
-91 140 107 c76 59 155 119 175 135 38 28 103 37 133 17 13 -9 10 -15 -16 -38
-62 -55 -154 -127 -181 -142 -37 -20 -135 -93 -151 -113 -16 -19 -7 -25 213
-146 568 -312 1211 -581 1842 -770 155 -46 175 -50 220 -42 90 18 447 53 525
52 45 0 95 6 120 15 24 8 126 24 228 34 190 20 291 34 370 51 25 5 88 11 140
13 52 3 158 16 235 31 269 50 320 57 373 52 53 -6 97 2 262 44 42 10 141 32
220 49 80 16 179 39 220 50 107 29 457 100 495 100 17 0 77 14 133 31 57 16
135 34 175 38 41 5 82 13 93 19 11 6 60 18 110 27 49 9 132 27 184 40 52 13
149 35 215 50 66 14 136 30 155 35 19 6 60 14 90 19 30 5 84 16 120 25 180 44
333 76 367 76 39 0 265 53 383 90 36 11 128 29 205 40 77 11 160 27 185 35 25
8 90 24 145 36 55 11 156 37 223 56 68 19 135 33 149 30 15 -3 27 1 30 9 3 8
13 14 23 14 10 0 37 7 61 17 24 9 82 20 129 24 47 4 117 15 155 24 39 9 111
22 160 30 50 7 171 30 270 50 99 21 194 39 210 42 17 2 71 10 120 18 50 7 106
13 125 12 19 0 73 5 119 12 47 7 110 10 141 6 31 -4 67 -2 83 4 15 6 76 13
135 17 99 5 110 8 152 37 96 66 370 280 366 285 -7 6 -53 -23 -88 -56 -15 -14
-30 -23 -33 -20 -6 6 46 81 87 124 16 17 44 52 61 77 18 25 72 98 120 162 49
64 137 201 195 303 157 277 186 340 198 429 5 42 3 56 -14 79 -16 23 -21 51
-26 134 -6 119 -26 207 -89 400 -49 151 -132 320 -157 320 -11 0 -19 -65 -30
-224 -13 -202 -39 -319 -101 -453 -16 -34 -29 -66 -29 -71 0 -5 -18 -21 -40
-36 -24 -15 -49 -45 -64 -74 -13 -26 -34 -53 -45 -59 -11 -7 -53 -61 -92 -120
-40 -60 -102 -144 -138 -189 -65 -80 -112 -142 -161 -213 -100 -146 -237 -281
-335 -331 -62 -31 -77 -35 -144 -34 -94 1 -194 20 -244 46 -29 14 -53 42 -95
110 -31 49 -85 129 -119 177 -35 47 -83 124 -107 171 -24 47 -52 95 -62 108
l-19 22 -45 -36 c-27 -21 -50 -50 -57 -71 -7 -20 -29 -55 -48 -78 -19 -24 -39
-62 -44 -85 -10 -44 -54 -98 -104 -128 -30 -18 -48 -66 -53 -140 -1 -23 -12
-71 -24 -107 -31 -94 -164 -247 -365 -419 l-45 -39 0 29 c0 16 16 65 36 109
50 113 123 347 133 430 10 80 2 105 -35 105 -40 0 -46 33 -33 209 11 145 10
166 -10 290 -12 74 -26 142 -31 151 -5 9 -22 70 -39 136 -41 159 -141 409
-199 494 -43 64 -81 141 -76 154 3 6 31 29 62 50 31 22 89 63 128 93 40 29 77
53 83 53 15 0 14 76 -4 196 -8 54 -19 137 -25 184 -5 47 -19 146 -30 220 -11
74 -24 189 -30 255 -18 236 -30 372 -49 535 -10 91 -19 176 -19 190 1 47 -22
425 -27 455 -8 52 -25 837 -30 1401 -3 298 -10 615 -16 705 -6 90 -13 184 -14
209 -2 25 -10 99 -20 165 -9 65 -15 138 -14 161 2 23 -2 48 -8 56 -18 22 -36
229 -31 365 6 145 29 253 65 296 12 16 83 81 155 144 73 64 135 120 136 125 2
4 8 8 14 8 13 0 66 47 234 209 140 135 212 198 279 246 23 17 41 32 41 35 -1
7 86 86 148 136 28 21 89 77 136 124 93 91 244 190 290 190 14 0 30 4 36 10
13 13 138 -13 167 -34 12 -9 51 -36 87 -60 67 -44 111 -92 192 -206 54 -78 78
-130 78 -175 0 -32 -9 -42 -99 -118 -8 -7 -29 -17 -45 -23 -31 -11 -35 -18
-52 -112 -3 -12 -15 -27 -28 -33 -13 -6 -38 -35 -56 -63 -19 -29 -48 -62 -66
-74 -17 -11 -35 -33 -38 -48 -4 -16 -32 -77 -62 -137 -43 -88 -54 -119 -54
-158 0 -38 -5 -53 -21 -67 -37 -31 -78 -99 -89 -148 -19 -82 -122 -236 -235
-351 -79 -80 -107 -103 -128 -103 -15 0 -27 3 -27 7 0 4 40 48 89 98 81 82 96
104 151 216 51 106 61 134 66 194 3 39 10 86 15 105 16 54 -4 212 -35 282 -57
128 -226 315 -334 369 -81 40 -168 23 -236 -47 -68 -70 -70 -80 -71 -269 0
-93 6 -206 13 -250 62 -391 73 -534 83 -1135 17 -1083 29 -1416 67 -1920 16
-214 18 -225 38 -228 15 -2 30 11 59 55 21 32 79 99 130 148 50 50 96 97 101
107 7 13 211 232 300 322 11 11 31 37 44 56 32 49 221 229 241 230 9 0 42 -19
75 -42 32 -23 85 -56 116 -75 35 -21 87 -67 135 -121 197 -221 322 -376 323
-398 0 -6 9 -19 19 -28 18 -16 65 -106 121 -227 21 -48 47 -121 125 -359 96
-289 150 -695 196 -1450 6 -107 15 -198 18 -203 4 -4 24 5 44 20 20 16 55 39
78 53 23 14 65 46 92 72 l50 48 -7 212 c-5 127 -16 266 -28 343 -11 72 -22
146 -24 165 -3 19 -13 95 -24 168 -11 74 -20 155 -20 180 0 26 -7 97 -15 157
-8 61 -21 160 -30 220 -31 237 -82 558 -94 600 -10 34 -22 131 -27 219 -3 53
1 68 33 129 43 81 206 254 294 310 30 19 76 54 102 77 27 24 81 68 121 99 41
31 98 77 127 103 141 122 163 140 200 165 22 14 42 23 46 20 8 -9 -39 -69 -99
-125 -28 -26 -67 -72 -87 -102 -35 -54 -36 -56 -33 -144 2 -49 10 -124 19
-165 8 -42 19 -103 23 -136 5 -33 18 -121 29 -195 34 -216 68 -496 75 -615 4
-60 22 -220 41 -355 20 -144 38 -329 45 -450 5 -113 14 -259 20 -325 5 -66 12
-268 15 -450 3 -181 10 -437 16 -568 l9 -238 -29 -24 c-16 -14 -36 -42 -44
-63 -9 -22 -46 -67 -89 -107 -54 -50 -79 -83 -92 -116 -9 -26 -45 -80 -79
-120 -34 -41 -79 -99 -99 -130 -26 -41 -49 -63 -83 -79 -35 -17 -51 -33 -70
-71 -14 -26 -25 -59 -25 -72 0 -13 -5 -28 -11 -34 -19 -19 -2 -30 63 -43 35
-6 76 -19 93 -27 l30 -16 78 84 c229 244 391 429 577 657 l84 104 -78 151
c-86 164 -136 248 -173 288 -32 34 -23 51 51 102 33 22 93 68 131 100 39 33
84 65 100 72 17 8 54 38 82 67 l51 55 7 109 c4 60 5 165 1 234 -3 69 -10 301
-15 515 -12 503 -27 669 -60 690 -20 12 -12 33 30 82 l42 47 -8 146 c-4 80 -9
174 -10 210 -16 394 -17 402 -36 421 -25 25 -92 42 -174 42 -74 0 -97 -8 -156
-54 -41 -33 -62 -37 -52 -12 4 9 35 65 70 125 35 60 63 111 63 113 0 3 17 30
38 62 68 103 100 156 149 253 l48 95 3 144 c2 79 -2 189 -8 245 -24 211 -48
1259 -31 1351 7 39 31 96 69 165 32 58 64 123 70 145 10 33 40 66 164 180 83
77 218 202 300 278 83 76 152 136 155 133 3 -3 -26 -71 -66 -152 -48 -98 -74
-166 -81 -207 -13 -80 -12 -458 1 -752 5 -126 16 -495 24 -820 7 -324 17 -603
21 -618 9 -39 161 -185 272 -262 50 -35 121 -87 159 -116 73 -57 183 -111 305
-153 57 -19 96 -26 155 -26 l79 0 32 133 c44 182 94 419 88 424 -2 3 -22 7
-43 10 -32 4 -48 -2 -99 -35 -36 -23 -75 -60 -94 -87 -36 -52 -45 -52 -36 -1
5 27 20 46 63 81 70 58 98 72 170 88 l58 13 12 75 c110 649 151 1177 140 1804
-6 344 -15 508 -42 780 -215 2149 -1136 4118 -2654 5678 l-155 158 -27 -61
c-45 -97 -129 -173 -272 -245 -92 -46 -117 -64 -114 -77 6 -23 -16 -29 -77
-22 -84 9 -102 21 -147 91 -48 77 -56 116 -38 178 11 37 18 45 34 43 15 -2 23
-17 35 -63 21 -77 42 -116 80 -149 39 -32 57 -32 140 2 76 32 115 77 185 214
24 48 53 100 64 115 40 57 37 65 -42 139 -282 267 -687 592 -1048 842 -130 90
-152 102 -189 102 -24 0 -56 -8 -74 -19 -17 -11 -78 -29 -136 -41 -58 -13
-130 -35 -161 -51 -31 -15 -85 -37 -120 -49 -101 -34 -305 -129 -404 -189 -49
-30 -119 -70 -155 -89 -35 -18 -110 -62 -165 -97 -55 -34 -140 -88 -189 -119
-49 -31 -94 -56 -99 -56 -16 0 -80 -45 -209 -147 -125 -100 -158 -134 -158
-165 0 -14 -6 -19 -22 -16 -39 5 -34 42 14 98 48 56 223 210 239 210 6 0 36
18 68 39 31 22 74 46 95 55 20 8 67 35 104 59 156 103 273 173 357 217 161 84
330 180 341 195 6 8 16 15 23 15 22 0 204 80 225 98 11 11 45 33 74 48 112 61
129 71 165 98 l38 29 -98 60 c-242 149 -847 477 -879 477 -6 0 -21 -25 -33
-56 -18 -43 -49 -82 -140 -174 -64 -65 -141 -134 -173 -155 l-56 -37 -169 4
-168 3 -91 42 c-50 24 -108 49 -129 56 -55 19 -62 47 -21 86 32 31 32 31 92
20 32 -6 79 -22 104 -37 57 -34 122 -54 180 -57 25 -1 58 -5 73 -9 17 -5 38
-4 52 2 15 7 35 8 56 2 23 -7 37 -6 53 5 11 8 36 15 54 15 41 0 90 39 143 114
32 47 99 184 99 205 0 11 -295 140 -537 235 -171 67 -534 196 -553 196 -10 0
-56 -133 -69 -200 -40 -213 -44 -486 -12 -805 35 -344 69 -505 168 -790 19
-55 38 -116 42 -135 5 -19 18 -51 30 -71 12 -21 37 -82 56 -138 19 -55 43
-118 54 -139 10 -21 35 -83 54 -137 38 -107 60 -158 142 -330 29 -60 56 -121
60 -135 4 -14 27 -65 51 -114 26 -53 42 -97 38 -108 -3 -10 0 -18 6 -18 6 0
18 -17 27 -37 8 -21 41 -92 73 -158 32 -66 65 -138 73 -160 25 -70 78 -199 92
-225 7 -14 28 -63 45 -110 18 -47 36 -89 40 -95 13 -16 50 -118 50 -137 0 -9
3 -18 8 -20 9 -4 46 -79 71 -143 11 -27 39 -97 64 -155 101 -236 125 -303 167
-450 18 -63 44 -150 57 -193 14 -43 31 -102 38 -130 7 -29 24 -97 38 -152 42
-165 75 -379 76 -490 0 -22 6 -123 13 -225 7 -102 13 -311 13 -465 0 -255 -2
-284 -18 -309 -12 -18 -15 -31 -9 -39 10 -12 -15 -156 -37 -207 -5 -14 -26
-66 -46 -117 -20 -50 -59 -133 -86 -184 -27 -51 -49 -96 -49 -100 0 -21 -123
-238 -179 -314 -36 -49 -83 -117 -105 -150 -22 -33 -64 -88 -93 -122 -29 -34
-62 -81 -73 -103 -11 -22 -41 -61 -66 -88 -26 -26 -58 -65 -72 -87 -39 -62
-196 -264 -247 -319 -43 -46 -46 -48 -63 -33 -17 16 -21 15 -56 -3 -40 -20
-76 -62 -103 -118 -15 -32 -72 -72 -123 -87 -33 -10 -39 -21 -33 -65 4 -31 0
-42 -26 -73 -17 -19 -51 -45 -74 -57 -23 -12 -52 -31 -65 -43 -20 -19 -26 -20
-55 -8 -18 7 -59 19 -92 26 -131 29 -279 102 -329 162 -27 33 -79 101 -140
187 -63 87 -134 230 -157 311 -11 42 -27 93 -36 113 -8 20 -35 115 -59 212
-29 114 -53 188 -70 213 -14 22 -28 55 -31 75 -4 22 -19 49 -39 68 -20 20 -44
65 -64 116 -17 46 -38 92 -45 104 -15 24 -85 227 -85 247 0 8 -9 22 -20 32
-11 10 -20 22 -20 27 0 14 -67 144 -101 198 -36 55 -33 73 24 127 28 27 66 58
82 69 45 29 249 179 266 196 16 17 47 286 35 306 -3 5 1 57 9 113 13 98 30
244 42 369 3 30 9 60 14 67 7 7 6 14 -1 18 -15 9 -6 74 30 230 61 258 104 393
147 457 16 24 38 63 48 88 37 87 95 158 298 366 112 115 233 240 268 278 35
38 106 110 157 161 50 51 92 100 92 108 0 8 -9 36 -19 61 -14 32 -16 46 -8 50
7 2 6 5 -4 5 -9 1 -36 42 -67 106 -29 57 -52 107 -52 111 0 5 -34 79 -161 350
-16 34 -29 68 -29 76 0 8 -4 18 -9 23 -9 10 -81 194 -85 217 -1 7 -10 28 -20
46 -10 19 -15 36 -12 39 3 3 -1 12 -9 20 -8 7 -20 33 -26 56 -7 23 -23 65 -36
94 -13 29 -22 56 -21 60 1 4 -6 20 -16 35 -19 29 -136 348 -136 371 0 8 -15
61 -34 118 -18 57 -36 129 -40 159 -6 58 -8 66 -25 142 -6 25 -13 83 -16 128
-2 44 -9 98 -15 119 -24 90 -40 615 -21 688 5 21 17 90 26 153 16 116 39 197
93 325 50 120 121 248 161 291 28 30 35 44 28 55 -11 18 52 134 104 193 25 29
37 56 26 56 -2 0 -118 29 -258 64 -604 153 -1187 241 -1819 276 -211 11 -828
11 -1030 -1z m1838 -708 c54 -11 120 -23 147 -26 60 -8 253 -68 298 -92 l32
-18 -50 -3 c-27 -2 -81 4 -120 13 -354 78 -357 79 -477 77 -82 -2 -136 -8
-180 -21 -35 -11 -96 -24 -137 -30 -40 -7 -81 -15 -90 -20 -9 -5 -32 -11 -52
-15 -20 -3 -60 -18 -89 -32 -28 -14 -75 -34 -104 -44 -28 -11 -63 -28 -77 -37
-101 -69 -128 -85 -162 -94 -21 -5 -35 -14 -32 -19 3 -5 -1 -12 -8 -17 -59
-35 -295 -354 -345 -467 -54 -120 -69 -342 -38 -566 10 -69 19 -138 21 -155 3
-16 9 -55 15 -85 6 -30 11 -63 11 -72 0 -9 7 -22 15 -29 8 -6 14 -17 14 -23 0
-15 57 -126 75 -146 7 -8 18 -28 24 -43 15 -39 132 -173 158 -181 25 -7 86
-80 75 -90 -4 -4 -1 -6 7 -4 25 5 23 -31 -3 -57 -16 -16 -36 -25 -56 -25 -42
0 -67 -15 -85 -49 -8 -16 -37 -59 -65 -95 -27 -36 -50 -71 -50 -79 0 -7 -5
-18 -12 -25 -9 -9 -9 -20 1 -50 18 -49 67 -91 108 -92 17 0 35 -4 38 -10 3 -5
30 -10 58 -10 34 0 62 -7 80 -19 24 -15 34 -17 57 -8 22 8 35 8 54 -2 26 -14
39 -14 298 9 105 9 154 20 280 59 188 60 446 154 512 187 28 13 56 24 63 24
22 0 152 67 192 99 48 38 112 64 124 52 26 -26 -127 -129 -293 -196 -36 -14
-101 -44 -145 -65 -44 -22 -100 -44 -125 -50 -61 -15 -143 -43 -210 -73 -30
-13 -81 -30 -113 -37 -32 -7 -60 -17 -63 -22 -3 -5 -10 -5 -16 -2 -5 4 -20 2
-31 -4 -39 -18 -154 -41 -178 -35 -15 4 -20 3 -15 -5 5 -8 -5 -12 -31 -13 -21
0 -49 -2 -63 -5 -164 -26 -331 -21 -497 16 -73 17 -147 30 -163 30 -16 0 -31
4 -35 10 -3 5 -12 7 -20 4 -8 -3 -27 1 -42 10 -15 8 -69 31 -119 50 -99 37
-190 81 -215 102 -9 8 -42 28 -75 44 -130 66 -203 145 -306 327 -96 171 -129
291 -164 597 -27 243 -9 429 58 586 56 130 178 322 262 411 31 32 56 64 56 70
0 5 19 19 43 30 23 11 64 34 91 51 39 25 52 29 67 20 10 -6 46 -16 80 -21 34
-6 64 -13 67 -16 3 -3 15 12 27 32 11 21 27 38 35 38 8 0 18 7 22 17 4 9 20
19 37 23 17 3 43 19 59 33 31 29 140 62 203 62 23 0 39 5 42 15 7 17 131 81
184 94 21 5 58 16 83 25 472 157 507 164 863 194 11 1 62 -7 115 -17z m-346
-3744 c64 -52 205 -229 249 -312 17 -33 41 -73 53 -90 29 -40 93 -179 110
-241 8 -27 28 -89 45 -138 45 -131 54 -190 49 -322 -6 -148 -26 -194 -123
-280 -46 -42 -65 -66 -65 -83 0 -18 -31 -54 -114 -135 -84 -81 -119 -123 -132
-156 -10 -25 -28 -61 -41 -80 -13 -19 -23 -38 -23 -43 0 -15 -103 -127 -116
-127 -8 0 -14 -9 -14 -21 0 -12 -26 -52 -57 -89 -57 -67 -72 -85 -153 -187
-23 -29 -46 -53 -51 -53 -5 0 -9 -4 -9 -10 0 -20 54 -13 223 27 92 21 224 13
321 -21 277 -96 414 -118 491 -78 43 22 80 53 88 74 2 7 8 10 12 6 11 -11 -42
-99 -101 -167 -29 -34 -68 -83 -85 -109 -18 -26 -48 -65 -69 -87 -20 -22 -79
-92 -130 -155 -52 -63 -103 -125 -114 -137 -12 -11 -27 -27 -33 -35 -7 -7 -24
-24 -37 -37 -14 -14 -30 -37 -36 -52 -17 -40 -110 -79 -187 -79 -56 0 -210 37
-371 89 -104 34 -213 30 -351 -12 -129 -40 -151 -54 -132 -89 6 -13 25 -32 41
-43 17 -11 30 -23 30 -27 0 -4 -20 -16 -45 -27 -25 -11 -45 -25 -45 -32 0 -6
22 -41 49 -78 84 -114 85 -123 20 -165 -21 -15 -41 -37 -45 -52 -15 -57 28
-216 84 -314 38 -68 134 -190 181 -233 24 -21 84 -58 134 -83 85 -41 96 -44
174 -44 114 0 240 33 318 82 177 112 188 121 240 212 99 171 171 264 190 244
15 -14 -32 -126 -85 -207 -83 -125 -396 -437 -511 -509 -25 -16 -68 -52 -96
-80 -46 -46 -117 -92 -143 -92 -20 0 -96 -39 -110 -55 -15 -18 -92 -59 -130
-69 -14 -3 -34 -21 -45 -39 -13 -20 -43 -44 -85 -65 -42 -21 -70 -42 -78 -60
-17 -35 -76 -63 -127 -60 -22 1 -52 -2 -66 -6 -18 -5 -31 -3 -42 8 -8 9 -22
16 -30 16 -17 0 -98 57 -111 78 -4 8 -17 21 -28 31 -39 31 -67 65 -80 95 -7
17 -20 38 -29 46 -26 23 -119 211 -119 240 0 9 -6 36 -14 61 -8 24 -21 87 -30
139 -33 194 -46 237 -88 296 -39 54 -59 107 -80 209 -6 28 -21 71 -34 96 -20
39 -22 51 -13 77 9 26 6 53 -16 144 -35 150 -86 259 -200 429 -52 78 -95 150
-95 160 0 19 41 52 80 64 14 4 54 32 89 63 36 30 83 66 105 80 141 89 142 90
154 131 8 26 14 169 17 428 6 416 18 620 42 668 8 17 30 53 48 80 18 28 45 72
60 98 35 63 144 199 193 240 20 17 54 50 76 72 21 22 109 114 195 204 224 234
261 272 310 314 56 48 71 56 101 51 20 -3 31 3 50 30 14 19 36 41 50 50 14 9
68 56 120 106 52 49 100 90 108 90 7 0 22 15 33 34 23 39 143 146 164 146 8 0
38 -19 67 -43z m-8474 -4362 c11 -13 22 -48 26 -77 5 -35 17 -68 37 -95 17
-24 27 -47 24 -53 -8 -13 16 -81 26 -74 9 5 39 -35 39 -54 0 -21 70 -102 88
-102 9 0 39 -24 67 -53 62 -67 143 -131 209 -165 45 -23 63 -27 146 -27 76 0
104 4 140 21 25 12 52 24 60 27 39 14 164 112 182 143 24 41 28 42 28 6 0 -40
-42 -90 -135 -159 -139 -104 -230 -143 -335 -143 -83 0 -135 18 -238 83 -235
146 -391 351 -428 562 -18 104 -18 150 2 169 22 22 40 20 62 -9z m8725 -239
c3 -8 -1 -20 -10 -28 -33 -27 -195 -221 -206 -246 -14 -34 -12 -392 4 -505 5
-43 12 -115 14 -160 2 -45 9 -111 14 -147 6 -36 11 -105 11 -155 0 -49 7 -133
16 -185 24 -150 55 -401 49 -409 -2 -4 0 -23 5 -42 5 -19 11 -61 14 -94 2 -33
12 -132 21 -220 8 -88 16 -254 16 -370 0 -115 4 -255 9 -310 5 -55 14 -224 20
-375 6 -151 15 -329 20 -395 5 -66 12 -203 15 -305 9 -276 20 -468 28 -476 9
-9 47 25 47 41 0 7 7 18 15 25 13 11 18 10 29 -5 13 -18 19 -14 95 55 45 40
138 137 208 214 164 182 482 501 553 553 30 22 83 66 118 97 34 31 69 56 77
56 24 0 131 -102 184 -174 46 -63 92 -150 209 -391 86 -178 176 -433 229 -650
8 -33 27 -114 43 -180 38 -155 67 -303 75 -385 4 -36 15 -103 25 -150 10 -47
21 -116 25 -155 4 -38 11 -88 16 -111 14 -67 51 -396 45 -409 -2 -7 2 -82 9
-166 14 -151 15 -176 15 -311 1 -169 -93 -411 -208 -539 -26 -29 -56 -67 -67
-84 -43 -70 -74 -111 -104 -139 -17 -17 -31 -34 -31 -39 0 -5 -31 -51 -70
-102 -38 -51 -70 -97 -70 -102 0 -15 -64 -71 -85 -75 -11 -2 -21 -12 -24 -23
-7 -41 -343 -428 -379 -439 -95 -28 -206 -25 -269 7 -15 8 -45 17 -67 20 -64
10 -140 65 -217 155 -39 45 -84 93 -101 105 -17 12 -41 45 -55 72 -14 28 -38
68 -53 90 -16 22 -31 55 -35 72 -4 18 -13 33 -20 33 -25 0 -75 -51 -75 -76 0
-31 -43 -138 -75 -186 -14 -21 -25 -48 -25 -61 0 -30 -37 -86 -99 -152 -26
-27 -82 -91 -124 -142 -43 -50 -107 -125 -143 -165 -36 -40 -87 -97 -113 -126
-137 -157 -171 -187 -171 -147 0 8 20 52 44 98 68 126 120 347 107 457 l-6 55
-43 0 c-29 0 -46 5 -52 16 -5 8 -11 58 -14 110 -8 143 -25 215 -101 429 -35
97 -65 160 -110 229 -34 53 -90 145 -126 205 -35 60 -97 147 -136 193 -40 47
-73 91 -73 99 0 8 19 26 43 41 23 15 65 46 92 68 28 23 75 56 106 75 31 18 83
55 115 83 33 28 73 56 89 63 17 7 51 34 77 61 43 44 48 53 49 99 1 28 -1 55
-4 61 -8 12 -24 207 -37 440 -6 100 -12 204 -15 230 -2 26 -9 118 -15 203 -6
85 -15 211 -20 280 -5 69 -15 240 -20 380 -6 140 -13 261 -15 268 -3 8 -31 -9
-77 -47 -75 -60 -273 -196 -305 -208 -10 -4 -43 -31 -73 -60 -30 -29 -80 -66
-111 -83 -31 -16 -64 -41 -73 -55 -9 -14 -23 -25 -32 -25 -27 0 -85 -73 -130
-167 -49 -101 -51 -116 -28 -218 16 -76 25 -147 48 -385 25 -258 36 -543 42
-1015 3 -247 8 -453 11 -457 2 -5 6 -136 8 -291 3 -296 22 -514 52 -597 8 -25
53 -122 99 -217 97 -197 92 -193 231 -193 70 0 92 4 130 25 26 13 49 22 51 20
7 -7 -55 -76 -127 -138 -97 -86 -206 -159 -286 -192 -38 -16 -95 -44 -125 -62
-30 -18 -71 -36 -90 -39 -19 -4 -42 -13 -51 -20 -23 -20 -103 -41 -189 -49
-41 -4 -85 -11 -97 -16 -18 -7 -33 -1 -71 27 -71 53 -128 168 -146 294 -22
149 -35 266 -42 378 -5 80 -10 102 -21 102 -27 0 -82 -32 -88 -50 -3 -11 -29
-38 -58 -62 -29 -23 -86 -72 -127 -108 -41 -36 -85 -73 -96 -81 -12 -7 -80
-63 -150 -122 -71 -59 -149 -120 -174 -134 -25 -14 -81 -49 -125 -78 -69 -44
-85 -51 -117 -47 -33 4 -39 1 -47 -21 -8 -22 -17 -25 -80 -31 l-70 -7 -119 79
c-136 92 -208 170 -256 280 -11 23 -22 42 -25 42 -24 2 -41 34 -51 96 -6 38
-33 120 -60 184 -26 63 -54 135 -60 160 -7 24 -23 66 -36 92 -13 25 -37 89
-54 141 -17 54 -51 129 -81 178 -29 46 -72 120 -96 164 -24 44 -73 120 -109
169 -36 48 -62 92 -57 97 4 4 40 31 78 59 39 28 88 64 110 81 22 16 80 59 129
95 87 66 88 67 83 103 -17 105 -29 319 -24 418 6 130 31 213 86 285 20 25 43
59 52 75 8 16 86 91 173 168 202 180 503 466 539 512 15 20 27 44 27 54 0 37
-170 84 -340 94 -58 3 -146 12 -197 19 -87 14 -97 18 -183 77 -73 50 -96 71
-115 109 -28 55 -49 169 -40 214 11 50 50 102 82 109 20 4 88 67 227 209 206
210 289 298 341 358 41 48 129 85 264 110 110 21 116 22 235 5 134 -18 187
-35 391 -125 77 -34 176 -77 220 -95 44 -18 107 -47 140 -65 33 -17 96 -51
140 -74 44 -23 118 -69 164 -103 180 -130 275 -169 384 -158 148 16 455 159
530 247 l40 47 -13 208 c-6 114 -14 264 -16 333 -3 69 -7 152 -10 185 -2 33
-6 139 -9 235 -2 96 -9 234 -15 305 -5 72 -11 156 -12 188 -2 31 -6 57 -9 57
-9 0 -32 227 -25 239 4 5 2 18 -3 28 -14 25 -51 252 -51 312 0 28 -4 70 -10
93 -5 24 -17 135 -25 248 -9 113 -23 255 -31 315 -17 129 -28 445 -18 529 5
49 13 66 43 100 20 23 63 77 96 121 33 43 78 98 100 120 67 69 235 215 247
215 12 0 70 52 117 104 26 28 48 51 168 169 85 83 153 117 166 83z m5813 -130
c3 -8 -19 -45 -49 -84 -45 -58 -58 -86 -81 -168 -26 -91 -28 -106 -23 -228 3
-72 12 -183 20 -246 13 -105 12 -120 -3 -175 -20 -68 -101 -207 -160 -275 -22
-25 -50 -65 -63 -90 -57 -106 -89 -166 -97 -175 -4 -5 -10 -25 -13 -43 -4 -18
-40 -91 -80 -162 -41 -70 -89 -170 -107 -222 -18 -51 -41 -101 -51 -110 -10
-10 -30 -33 -45 -53 -56 -74 -72 11 -28 150 40 129 41 183 4 404 -25 152 -30
202 -22 232 6 22 6 56 1 81 -14 71 -10 220 6 248 8 14 14 35 15 48 0 23 14 29
26 11 8 -14 100 -5 120 12 9 7 14 31 14 63 0 66 30 121 63 112 23 -5 72 9 115
33 13 7 35 38 49 69 13 32 28 64 33 72 19 30 37 76 43 109 4 19 15 46 24 60
10 15 30 52 45 84 34 72 103 162 164 216 49 43 71 50 80 27z m-7921 -922 c39
-8 88 -20 110 -26 22 -5 63 -11 91 -13 54 -3 209 -48 231 -67 10 -8 17 -8 25
0 7 7 16 8 22 3 21 -17 109 -61 123 -61 8 0 24 -11 36 -23 13 -15 39 -27 66
-31 24 -4 53 -13 64 -21 12 -8 31 -15 44 -15 12 0 26 -7 31 -16 5 -9 32 -23
60 -32 28 -10 52 -21 54 -27 4 -12 -78 -54 -105 -55 -11 0 -44 18 -75 39 -36
25 -131 68 -257 116 -173 66 -220 79 -345 100 -232 38 -421 50 -575 36 -71 -6
-150 -14 -175 -16 -25 -2 -81 -15 -125 -28 -44 -14 -119 -37 -167 -52 -48 -14
-92 -33 -99 -41 -6 -8 -17 -14 -23 -14 -7 0 -30 -13 -52 -30 -21 -16 -43 -30
-49 -30 -5 0 -21 -16 -34 -35 -12 -19 -38 -43 -56 -54 -22 -13 -37 -33 -48
-62 -8 -24 -18 -51 -22 -60 -5 -14 5 -19 58 -28 84 -15 78 -16 120 25 34 31
43 35 85 32 l47 -3 -1 -40 c0 -22 -14 -78 -29 -125 -27 -79 -29 -95 -28 -240
1 -163 19 -283 65 -420 77 -233 293 -510 489 -627 78 -46 316 -122 424 -135
172 -20 488 7 635 53 130 42 210 72 210 79 0 4 17 11 38 15 47 8 116 47 162
91 34 32 100 57 100 37 0 -22 -41 -91 -62 -105 -13 -8 -41 -21 -63 -28 -22 -7
-53 -18 -70 -25 -80 -36 -222 -89 -254 -96 -20 -4 -79 -19 -131 -32 -103 -27
-200 -43 -240 -40 -14 2 -38 -3 -55 -11 -48 -22 -166 -30 -190 -13 -12 10 -25
12 -35 6 -11 -7 -255 -28 -327 -28 -7 0 -21 -1 -30 -1 -37 0 -99 -12 -129 -25
-17 -8 -77 -19 -135 -26 -285 -30 -313 -37 -341 -86 -14 -23 -29 -34 -51 -37
-18 -2 -64 -9 -102 -15 -91 -13 -204 8 -254 47 -18 15 -47 37 -65 48 -98 67
-298 330 -371 488 -103 221 -143 716 -69 833 8 12 14 29 14 37 0 16 18 63 53
136 24 48 107 158 159 211 56 56 215 178 270 208 29 15 96 51 149 79 116 63
405 176 514 202 155 36 302 61 450 74 83 8 155 14 160 15 6 1 42 -6 80 -15z
m4020 -361 c-3 -16 -10 -29 -15 -31 -8 -3 -79 -58 -160 -122 -14 -11 -70 -43
-125 -72 -99 -51 -101 -52 -235 -63 -165 -14 -362 -4 -575 31 -82 13 -171 24
-196 24 -65 0 -204 18 -269 35 -30 8 -84 22 -120 30 -100 24 -149 88 -108 140
11 14 24 25 30 25 6 0 36 -20 66 -45 41 -34 63 -45 88 -45 19 0 51 -7 72 -16
40 -18 138 -36 187 -35 17 0 52 -6 79 -15 34 -12 50 -13 55 -5 5 7 16 8 37 1
32 -10 144 -26 294 -41 52 -6 172 -8 265 -4 94 3 192 5 218 5 60 -1 134 38
283 151 114 86 141 96 129 52z m-585 -634 c95 -15 208 -77 268 -148 27 -31 61
-76 76 -101 15 -25 47 -74 72 -110 24 -36 44 -68 44 -72 0 -3 -17 -12 -37 -18
-21 -7 -56 -22 -78 -35 -22 -12 -56 -25 -76 -29 -20 -3 -49 -18 -63 -31 -15
-14 -36 -25 -47 -25 -20 0 -100 -37 -109 -50 -7 -10 -67 -40 -80 -40 -6 0 -34
-10 -61 -21 -34 -15 -55 -32 -66 -53 -8 -17 -29 -45 -45 -63 -20 -21 -28 -37
-24 -48 4 -11 -3 -28 -18 -46 -13 -15 -30 -51 -37 -80 -7 -28 -19 -54 -26 -56
-7 -3 -13 -11 -13 -18 0 -7 -21 -32 -47 -55 -26 -22 -57 -56 -69 -74 -25 -36
-98 -92 -164 -126 -37 -19 -44 -20 -57 -7 -17 17 -15 19 62 70 61 40 139 135
160 196 9 25 19 87 22 136 5 86 4 93 -25 151 -17 34 -42 74 -55 90 -13 16 -38
52 -57 79 -18 28 -56 73 -85 100 -54 53 -114 79 -211 91 -27 4 -55 11 -62 17
-8 7 -24 5 -50 -5 -170 -70 -212 -80 -212 -55 0 20 30 43 65 51 17 4 80 30
140 58 131 61 220 96 375 148 63 21 151 55 195 75 117 54 235 95 325 114 3 0
34 -4 70 -10z m4638 -971 c-2 -6 -10 -14 -16 -16 -7 -2 -10 2 -6 12 7 18 28
22 22 4z"/>
<path d="M9668 17463 c7 -3 16 -2 19 1 4 3 -2 6 -13 5 -11 0 -14 -3 -6 -6z"/>
<path d="M9620 17332 c0 -4 16 -12 35 -18 33 -10 34 -10 21 5 -15 17 -56 26
-56 13z"/>
<path d="M9858 17163 c7 -3 16 -2 19 1 4 3 -2 6 -13 5 -11 0 -14 -3 -6 -6z"/>
<path d="M9780 16876 c0 -2 7 -9 15 -16 9 -7 15 -8 15 -2 0 5 -7 12 -15 16 -8
3 -15 4 -15 2z"/>
<path d="M9450 16849 c0 -5 5 -7 10 -4 6 3 10 8 10 11 0 2 -4 4 -10 4 -5 0
-10 -5 -10 -11z"/>
<path d="M11040 14410 c0 -5 5 -10 11 -10 5 0 7 5 4 10 -3 6 -8 10 -11 10 -2
0 -4 -4 -4 -10z"/>
<path d="M11210 14311 c0 -13 26 -32 33 -24 8 7 -11 33 -24 33 -5 0 -9 -4 -9
-9z"/>
<path d="M10330 14134 c-22 -20 -40 -41 -40 -46 0 -6 -15 -32 -34 -57 -61 -86
-84 -199 -86 -433 -2 -185 -19 -569 -30 -693 -12 -125 -14 -141 -40 -321 -10
-72 -16 -141 -13 -152 3 -12 0 -35 -5 -51 -7 -19 -7 -33 -1 -36 5 -4 7 -16 4
-28 -3 -12 -7 -76 -8 -142 -2 -98 0 -128 15 -164 l19 -44 44 47 c25 25 49 46
54 46 5 0 19 15 30 34 32 51 177 142 210 131 12 -4 27 8 51 41 23 33 49 54 86
71 30 13 57 30 61 38 5 7 23 29 40 49 57 62 213 381 213 436 0 14 7 50 15 80
64 240 -89 709 -336 1033 -63 82 -180 197 -201 197 -4 0 -26 -16 -48 -36z"/>
<path d="M11280 13540 c0 -5 5 -10 10 -10 6 0 10 5 10 10 0 6 -4 10 -10 10 -5
0 -10 -4 -10 -10z"/>
<path d="M10970 12800 c0 -6 7 -10 15 -10 8 0 15 2 15 4 0 2 -7 6 -15 10 -8 3
-15 1 -15 -4z"/>
<path d="M11005 12180 c-3 -6 1 -7 9 -4 18 7 21 14 7 14 -6 0 -13 -4 -16 -10z"/>
<path d="M10675 12090 c-3 -5 -1 -10 4 -10 6 0 11 5 11 10 0 6 -2 10 -4 10 -3
0 -8 -4 -11 -10z"/>
<path d="M10420 10209 c0 -5 5 -7 10 -4 6 3 10 8 10 11 0 2 -4 4 -10 4 -5 0
-10 -5 -10 -11z"/>
<path d="M11005 9310 c-3 -5 -1 -10 4 -10 6 0 11 5 11 10 0 6 -2 10 -4 10 -3
0 -8 -4 -11 -10z"/>
<path d="M12900 6170 c-12 -8 -11 -10 8 -10 12 0 22 5 22 10 0 13 -11 13 -30
0z"/>
<path d="M11870 6044 c-25 -25 -61 -54 -82 -65 -20 -10 -38 -24 -40 -30 -5
-16 -59 -75 -177 -197 -57 -59 -115 -124 -129 -145 l-25 -37 12 -183 c6 -100
16 -261 22 -357 5 -96 16 -236 24 -310 36 -341 58 -803 74 -1550 5 -207 12
-363 18 -374 9 -16 12 -14 30 20 25 50 59 57 73 17 15 -41 40 -85 65 -113 12
-14 35 -52 49 -86 22 -49 49 -83 140 -171 72 -70 123 -112 142 -116 16 -4 74
-10 129 -13 91 -6 108 -4 193 21 80 24 98 34 127 67 18 22 43 67 56 101 12 34
26 67 30 72 4 6 24 55 43 110 70 196 95 391 77 607 -6 68 -15 188 -22 268 -6
80 -15 169 -20 198 -12 62 -45 293 -59 402 -14 116 -68 429 -95 550 -86 395
-132 535 -312 950 -64 149 -144 278 -214 345 -37 36 -71 65 -76 65 -5 0 -29
-21 -53 -46z"/>
<path d="M10920 5591 c0 -5 5 -13 10 -16 6 -3 10 -2 10 4 0 5 -4 13 -10 16 -5
3 -10 2 -10 -4z"/>
<path d="M9525 5460 c-3 -5 -1 -10 4 -10 6 0 11 5 11 10 0 6 -2 10 -4 10 -3 0
-8 -4 -11 -10z"/>
<path d="M8584 5410 c-28 -18 -32 -28 -39 -83 -18 -151 -17 -165 26 -226 21
-31 39 -64 39 -74 0 -11 9 -21 21 -24 23 -6 91 -104 111 -159 6 -18 20 -35 30
-37 11 -3 18 -15 19 -29 2 -60 6 -78 20 -95 17 -21 31 -49 55 -116 9 -26 21
-50 25 -53 5 -3 9 -15 9 -28 0 -20 22 -82 63 -177 9 -20 19 -67 22 -105 3 -38
11 -85 17 -105 7 -27 7 -87 -1 -215 -13 -218 -18 -252 -42 -286 -11 -14 -19
-35 -19 -45 0 -10 -4 -23 -9 -29 -5 -5 -21 -31 -36 -59 -28 -52 -131 -175
-146 -175 -19 0 -7 25 44 85 53 65 103 174 126 280 26 117 1 468 -46 630 -8
27 -18 66 -22 85 -5 19 -23 69 -41 110 -18 41 -40 103 -50 137 -10 35 -41 95
-67 135 -27 40 -66 99 -88 131 -37 57 -81 97 -105 97 -7 0 -37 -22 -67 -50
-30 -27 -58 -50 -63 -50 -9 0 -97 -127 -124 -178 -39 -75 -42 -468 -6 -727 6
-38 17 -146 25 -240 8 -93 17 -184 20 -200 3 -17 16 -172 30 -345 25 -331 33
-371 91 -487 18 -36 28 -77 33 -136 7 -78 12 -91 57 -162 55 -87 90 -118 216
-195 72 -44 99 -54 162 -63 65 -9 86 -8 148 8 87 22 222 99 260 149 l28 34
-10 106 c-6 57 -10 124 -10 148 1 24 -4 117 -9 208 -6 91 -13 273 -15 405 -3
132 -8 285 -12 341 -4 71 -3 108 6 124 10 18 9 24 -1 30 -8 6 -17 63 -25 177
-8 92 -18 195 -23 228 -6 33 -13 93 -16 134 -3 40 -14 112 -24 160 -22 98 -18
134 14 159 13 10 44 60 70 110 25 51 51 90 56 87 5 -3 6 0 4 7 -9 24 69 130
153 209 77 72 95 100 72 114 -5 3 -26 -2 -47 -11 -50 -21 -153 -21 -226 0 -60
17 -198 100 -252 151 -25 24 -373 205 -393 205 -4 0 -21 -9 -38 -20z"/>
<path d="M12668 18493 c7 -3 16 -2 19 1 4 3 -2 6 -13 5 -11 0 -14 -3 -6 -6z"/>
<path d="M12727 18169 c7 -7 15 -10 18 -7 3 3 -2 9 -12 12 -14 6 -15 5 -6 -5z"/>
<path d="M12355 17790 c-3 -5 -1 -10 4 -10 6 0 11 5 11 10 0 6 -2 10 -4 10 -3
0 -8 -4 -11 -10z"/>
<path d="M12600 17185 c0 -8 2 -15 4 -15 2 0 6 7 10 15 3 8 1 15 -4 15 -6 0
-10 -7 -10 -15z"/>
<path d="M13000 16880 c0 -5 5 -10 11 -10 5 0 7 5 4 10 -3 6 -8 10 -11 10 -2
0 -4 -4 -4 -10z"/>
<path d="M12998 16833 c7 -3 16 -2 19 1 4 3 -2 6 -13 5 -11 0 -14 -3 -6 -6z"/>
<path d="M12581 16604 c0 -11 3 -14 6 -6 3 7 2 16 -1 19 -3 4 -6 -2 -5 -13z"/>
<path d="M7878 16193 c7 -3 16 -2 19 1 4 3 -2 6 -13 5 -11 0 -14 -3 -6 -6z"/>
<path d="M7848 16093 c7 -3 16 -2 19 1 4 3 -2 6 -13 5 -11 0 -14 -3 -6 -6z"/>
<path d="M7400 15896 c-58 -58 -145 -138 -194 -178 -135 -111 -273 -252 -359
-368 -43 -58 -116 -154 -163 -215 -148 -189 -210 -291 -341 -555 -55 -111 -57
-118 -58 -195 0 -169 17 -837 22 -851 7 -20 15 -18 69 19 47 31 174 86 239
102 17 4 68 11 115 15 81 7 192 43 230 75 26 21 167 75 197 75 21 0 41 12 74
45 26 27 53 45 67 45 28 0 73 23 92 45 8 9 34 27 59 40 115 59 373 391 461
593 l36 82 -18 133 c-9 72 -22 204 -28 292 -6 88 -17 186 -25 218 -33 129
-153 400 -238 533 -14 23 -50 67 -79 98 l-53 57 -105 -105z"/>
<path d="M5936 15551 c-4 -7 -5 -15 -2 -18 9 -9 19 4 14 18 -4 11 -6 11 -12 0z"/>
<path d="M13104 14603 c-72 -70 -88 -92 -169 -227 -64 -108 -106 -201 -113
-250 -2 -23 -11 -54 -19 -69 -18 -36 -62 -258 -74 -367 -4 -47 -15 -134 -24
-195 -9 -60 -18 -132 -20 -160 -2 -27 -9 -95 -15 -150 -18 -159 -28 -392 -36
-795 -9 -458 -2 -539 59 -675 22 -49 50 -114 62 -144 15 -34 33 -60 49 -68 17
-9 29 -27 37 -56 6 -23 18 -55 26 -72 9 -16 22 -59 30 -96 7 -37 23 -94 34
-126 11 -32 33 -107 49 -168 31 -115 130 -370 152 -390 49 -46 318 -135 406
-135 41 0 60 7 111 41 53 35 66 50 96 113 19 40 35 78 35 84 0 5 14 41 31 79
47 103 127 326 144 401 43 183 56 444 35 692 -5 63 -19 232 -30 375 -24 310
-38 407 -91 625 -37 150 -138 490 -174 583 -9 21 -13 43 -10 48 4 5 2 9 -4 9
-6 0 -13 17 -17 38 -4 20 -10 42 -14 47 -5 6 -19 39 -33 75 -13 36 -46 115
-72 175 -55 128 -96 234 -98 255 -1 8 -8 20 -16 26 -8 6 -15 20 -16 30 -1 10
-10 35 -20 54 -33 61 -154 345 -159 373 -5 29 -42 87 -55 87 -4 0 -39 -30 -77
-67z"/>
<path d="M5990 14599 c0 -5 5 -7 10 -4 6 3 10 8 10 11 0 2 -4 4 -10 4 -5 0
-10 -5 -10 -11z"/>
<path d="M14210 13429 c0 -5 5 -7 10 -4 6 3 10 8 10 11 0 2 -4 4 -10 4 -5 0
-10 -5 -10 -11z"/>
<path d="M5358 13353 c-10 -2 -18 -9 -18 -14 0 -6 8 -5 20 1 11 6 20 13 20 15
0 3 -1 4 -2 4 -2 -1 -11 -3 -20 -6z"/>
<path d="M7318 13163 c7 -3 16 -2 19 1 4 3 -2 6 -13 5 -11 0 -14 -3 -6 -6z"/>
<path d="M12348 13033 c7 -3 16 -2 19 1 4 3 -2 6 -13 5 -11 0 -14 -3 -6 -6z"/>
<path d="M12360 12940 c8 -5 22 -10 30 -10 13 0 13 1 0 10 -8 5 -22 10 -30 10
-13 0 -13 -1 0 -10z"/>
<path d="M12500 12670 c0 -5 5 -10 10 -10 6 0 10 5 10 10 0 6 -4 10 -10 10 -5
0 -10 -4 -10 -10z"/>
<path d="M11965 11260 c3 -5 8 -10 11 -10 2 0 4 5 4 10 0 6 -5 10 -11 10 -5 0
-7 -4 -4 -10z"/>
<path d="M15000 10700 c0 -5 5 -10 10 -10 6 0 10 5 10 10 0 6 -4 10 -10 10 -5
0 -10 -4 -10 -10z"/>
<path d="M14935 10340 c-3 -5 -2 -10 4 -10 5 0 13 5 16 10 3 6 2 10 -4 10 -5
0 -13 -4 -16 -10z"/>
<path d="M895 8969 c-27 -5 -70 -15 -95 -23 l-45 -14 2 -78 c2 -125 80 -697
102 -749 17 -41 191 -55 272 -21 37 15 72 20 132 18 128 -6 -85 -96 -350 -148
-13 -2 -23 -11 -23 -20 0 -29 81 -380 130 -565 405 -1522 1159 -2876 2263
-4064 l74 -80 -3 50 c-2 28 -8 113 -14 190 -17 220 -20 262 -30 565 -18 506
-15 482 -66 579 -25 46 -50 89 -57 95 -7 6 -33 38 -58 70 -52 71 -210 205
-291 248 -78 42 -78 64 -1 138 84 81 213 221 213 231 0 5 28 37 63 72 102 101
98 88 87 294 -14 266 -29 851 -30 1173 -2 449 -6 404 38 451 20 23 60 59 87
79 55 42 545 523 545 537 0 4 -38 7 -85 5 -73 -3 -108 3 -272 43 -103 26 -204
54 -223 62 -19 8 -75 28 -125 45 -49 17 -119 45 -155 63 -36 18 -76 36 -90 40
-14 4 -65 28 -115 52 -49 25 -117 55 -150 68 -33 12 -172 78 -310 145 -454
223 -590 287 -645 305 -30 10 -71 26 -90 36 -19 10 -64 23 -100 30 -36 6 -94
20 -130 30 -74 22 -318 59 -370 58 -19 -1 -57 -5 -85 -10z"/>
<path d="M14045 8900 c3 -5 8 -10 11 -10 2 0 4 5 4 10 0 6 -5 10 -11 10 -5 0
-7 -4 -4 -10z"/>
<path d="M5945 8390 c3 -5 10 -10 16 -10 5 0 9 5 9 10 0 6 -7 10 -16 10 -8 0
-12 -4 -9 -10z"/>
<path d="M3237 8379 c7 -7 15 -10 18 -7 3 3 -2 9 -12 12 -14 6 -15 5 -6 -5z"/>
<path d="M5213 7865 c-26 -19 -63 -44 -80 -56 -18 -11 -33 -26 -33 -32 0 -7
-30 -42 -67 -78 -76 -75 -124 -130 -208 -236 -31 -40 -60 -73 -64 -73 -9 0
-198 -270 -241 -344 -14 -24 -37 -59 -52 -78 -15 -19 -40 -57 -56 -84 -16 -27
-66 -106 -110 -176 -162 -256 -315 -609 -344 -793 -11 -69 -10 -80 6 -110 17
-32 18 -36 2 -75 -10 -25 -14 -55 -11 -78 6 -42 13 -221 14 -367 2 -128 6
-136 63 -103 23 14 97 47 163 73 116 47 124 49 230 51 127 2 191 15 243 48 20
13 66 34 102 46 36 13 76 31 90 41 14 9 52 22 85 29 33 7 64 18 68 26 4 8 16
14 25 14 18 0 89 34 157 75 22 13 52 24 66 24 14 1 34 10 44 21 10 11 23 20
30 20 6 0 36 18 65 40 29 22 59 40 67 40 40 0 329 289 412 412 35 52 72 123
90 175 27 74 32 100 32 182 0 169 -37 380 -99 566 -28 81 -99 206 -209 364
-21 30 -54 77 -73 106 -70 103 -146 190 -235 267 -49 44 -97 84 -107 89 -12 6
-29 0 -65 -26z"/>
<path d="M13690 7759 c0 -5 5 -7 10 -4 6 3 10 8 10 11 0 2 -4 4 -10 4 -5 0
-10 -5 -10 -11z"/>
<path d="M19215 7249 c-27 -16 -67 -31 -88 -34 -22 -4 -58 -24 -90 -49 -89
-72 -207 -156 -235 -168 -51 -22 -112 -78 -112 -103 0 -13 -11 -37 -25 -53
-14 -17 -25 -35 -25 -41 0 -14 -25 -14 -52 0 -16 9 -34 7 -77 -7 -31 -10 -59
-21 -63 -24 -6 -5 8 -592 31 -1280 l6 -175 140 280 c206 411 359 779 498 1195
70 209 151 480 145 484 -1 1 -25 -10 -53 -25z"/>
<path d="M13627 6829 c7 -7 15 -10 18 -7 3 3 -2 9 -12 12 -14 6 -15 5 -6 -5z"/>
<path d="M14609 6718 c-25 -21 -143 -187 -188 -265 -23 -40 -46 -73 -52 -73
-5 0 -17 -17 -26 -37 -12 -29 -14 -56 -9 -118 4 -44 11 -134 17 -200 5 -66 12
-145 14 -175 2 -30 14 -127 25 -215 12 -88 23 -182 24 -210 2 -27 11 -88 19
-135 20 -103 45 -309 57 -456 5 -60 16 -176 24 -259 9 -82 15 -166 15 -185 -2
-137 30 -497 52 -585 11 -44 16 -256 9 -405 -3 -73 0 -103 12 -125 49 -96 85
-155 119 -197 22 -26 39 -53 39 -61 0 -23 38 -64 65 -71 19 -5 33 -21 49 -55
46 -99 102 -140 201 -146 28 -2 78 -7 112 -11 66 -7 123 6 213 49 53 26 83 73
134 210 83 223 112 484 102 942 -9 364 -6 321 -56 905 -5 58 -14 132 -19 165
-6 33 -11 80 -11 105 0 25 -6 77 -15 115 -8 39 -23 111 -34 160 -23 104 -77
288 -96 325 -7 14 -20 50 -28 80 -52 187 -157 370 -318 551 -33 37 -59 70 -59
73 0 24 -217 236 -258 253 -21 8 -51 26 -69 39 -36 27 -43 29 -64 12z"/>
<path d="M14070 6680 c0 -5 5 -10 10 -10 6 0 10 5 10 10 0 6 -4 10 -10 10 -5
0 -10 -4 -10 -10z"/>
<path d="M13700 6110 c0 -5 5 -10 11 -10 5 0 7 5 4 10 -3 6 -8 10 -11 10 -2 0
-4 -4 -4 -10z"/>
<path d="M6050 4480 c0 -5 5 -10 10 -10 6 0 10 5 10 10 0 6 -4 10 -10 10 -5 0
-10 -4 -10 -10z"/>
<path d="M14735 1583 c-27 -1 -97 -10 -155 -18 -58 -8 -148 -19 -200 -25 -154
-15 -422 -63 -755 -134 -277 -59 -380 -85 -560 -139 -183 -56 -302 -86 -505
-127 -85 -17 -231 -52 -325 -76 -244 -66 -313 -82 -444 -105 -117 -20 -364
-77 -846 -195 -143 -34 -289 -68 -325 -74 -36 -6 -166 -38 -290 -70 -124 -32
-301 -75 -395 -95 -93 -20 -205 -47 -247 -60 -43 -14 -139 -38 -214 -55 -75
-16 -139 -31 -141 -33 -13 -13 509 -37 817 -37 1348 0 2627 270 3851 813 242
108 816 400 848 433 4 4 -14 4 -114 -3z"/>
</g>
</svg>
